<svg xmlns="http://www.w3.org/2000/svg" viewBox="0 0 125.21 51.96"><title>Recurso 1logo</title>
<g id="Capa_2" data-name="Capa 2"><g id="Layer_1" data-name="Layer 1"><path 
d="M45.67,21.91a.74.74,0,0,1-.27.58,1,1,0,0,1-.67.23,1.37,1.37,0,0,1-.68-.15v.07a1.45,1.45,0,0,0,.9,1.25,3.84,3.84,0,0,0,1.88.48,9.84,9.84,0,0,0,1.75-.14,7.23,7.23,0,0,0,1.53-.51,9.1,9.1,0,0,0,1.65-1A13.21,13.21,0,0,0,53.57,21a36.1,36.1,0,0,0,4.26-6l.07-.13q-5.25,1.17-7.56,3.27a4.31,4.31,0,0,0-.9,1c-.21.35-.35.53-.42.53s-.11,0-.11-.08a.47.47,0,0,1,.11-.31,6.81,6.81,0,0,1,3.12-2.84,21.48,21.48,0,0,1,6.07-2.18h.08a22.62,22.62,0,0,1,6-6.42,9,9,0,0,1,4.76-2c.24,0,.36,0,.36.11s0,.11-.12.13l-.79.22a6.63,6.63,0,0,0-1.65.83,15,15,0,0,0-2,1.58,26.45,26.45,0,0,0-4.09,5c1.46-.38,2.55-.69,3.28-.95a1.71,1.71,0,0,0,.53-.62,13,13,0,0,1,1.42.09,7.92,7.92,0,0,1,.94.14,8.33,8.33,0,0,0-3.3,3,6.48,6.48,0,0,0-.66,1.15,2.16,2.16,0,0,1-.23.5.2.2,0,0,1-.13,0c-.13,0-.19-.07-.19-.21a5.08,5.08,0,0,1,.55-1.53,13,13,0,0,1,.93-1.78c-.42.13-.95.27-1.6.42l-2,.43A33.64,33.64,0,0,1,57,19.2a20.84,20.84,0,0,1-3.4,3.4A10.58,10.58,0,0,1,47,24.79a4.64,4.64,0,0,1-2.47-.67,2,2,0,0,1-1.13-1.6,1.18,1.18,0,0,1,1-1.23,2.22,2.22,0,0,1,.51-.06,1,1,0,0,1,.51.17A.58.58,0,0,1,45.67,21.91ZM51.83,9.85a1.48,1.48,0,0,0,1.65,1.69,6.9,6.9,0,0,0,4.41-2,8.29,8.29,0,0,0,1.86-2.1,5.07,5.07,0,0,0,.56-1.28c0-.35.09-.52.16-.52s.15.19.15.55a3.77,3.77,0,0,1-.28,1.31A5.91,5.91,0,0,1,59.57,9a7.85,7.85,0,0,1-1.13,1.26,8.14,8.14,0,0,1-1.39,1,5.94,5.94,0,0,1-2.92.9,3.25,3.25,0,0,1-2.05-.55,1.87,1.87,0,0,1-.7-1.56A4,4,0,0,1,52,8a7.63,7.63,0,0,1,1.67-1.9,14.63,14.63,0,0,1,6-2.82,26.12,26.12,0,0,1,5.61-.5A21.89,21.89,0,0,1,67.94,3,40.34,40.34,0,0,0,72,3.35a8.74,8.74,0,0,0,2-.2,6,6,0,0,0,1.6-.57,5.23,5.23,0,0,0,2.1-2c.11-.18.22-.26.33-.26s.15,0,.15.09A.48.48,0,0,1,78,.75q-2.5,4-8,4a30.19,30.19,0,0,1-3.36-.25C64.06,4.17,62.34,4,61.51,4a12,12,0,0,0-2.42.24,13.5,13.5,0,0,0-2.24.66,12.7,12.7,0,0,0-2,1,10.34,10.34,0,0,0-1.6,1.22A3.94,3.94,0,0,0,51.83,9.85Z"/><path d="M64.22,23.85c0,.35.25.52.75.52a3.66,3.66,0,0,0,1.59-.4,9.78,9.78,0,0,0,1.68-1,18,18,0,0,0,1.61-1.33c.51-.48,1-.94,1.41-1.37l1.07-1.15c.29-.33.49-.55.59-.65l.31.26-.63.68c-.3.34-.67.74-1.11,1.18S70.55,21.51,70,22a16.88,16.88,0,0,1-1.7,1.36,6.62,6.62,0,0,1-3.62,1.43,1.69,1.69,0,0,1-1.08-.35,1,1,0,0,1-.43-.77,5.26,5.26,0,0,1,0-.66,2.56,2.56,0,0,1,.17-.57,7.65,7.65,0,0,1,.35-.75c.16-.28.37-.62.62-1l2.38-3.51L78.75,0A7.74,7.74,0,0,0,80.9,0Q66.1,20.6,65.56,21.38c-.35.52-.61.91-.78,1.18s-.29.48-.37.64A1.6,1.6,0,0,0,64.22,23.85Z"/><path d="M79.8,22.27a.9.9,0,0,1-.84-.46,9,9,0,0,1-4,2.77,4.58,4.58,0,0,1-1.39.22,4,4,0,0,1-1.16-.15,2.23,2.23,0,0,1-.79-.44q-1.26-1.08-.25-3.74a9.16,9.16,0,0,1,1-1.94,11.66,11.66,0,0,1,1.38-1.67,12.07,12.07,0,0,1,1.65-1.38,7,7,0,0,1,3.92-1.35,2.43,2.43,0,0,1,1.42.43,1.51,1.51,0,0,1,.64,1.23,6.12,6.12,0,0,1-.09,1.5,7.36,7.36,0,0,1-.42,1.39,10,10,0,0,1-1.59,2.71.56.56,0,0,0,.6.45,2.07,2.07,0,0,0,.94-.23,6.76,6.76,0,0,0,.88-.56,9.76,9.76,0,0,0,.87-.74c.28-.28.55-.54.78-.79l.59-.65c.17-.2.29-.33.36-.4l.34.26c-.13.12-.3.3-.51.53s-.44.47-.7.73l-.82.81A4.53,4.53,0,0,1,79.8,22.27Zm-6.44,1.94a1.45,1.45,0,0,0,.7.13,4.91,4.91,0,0,0,2.59-1.14,11.4,11.4,0,0,0,2.16-2v-.06a2.24,2.24,0,0,1,1-2,1.72,1.72,0,0,1,.5-.26,5.85,5.85,0,0,0,.7-2.6c-.06-1.06-.46-1.6-1.18-1.6-1.22,0-2.94,1.38-5.14,4.13q-2.13,2.67-2,4.17A1.28,1.28,0,0,0,73.36,24.21Z"/><path d="M86.9,23.55c0,.48.2.72.61.72a3,3,0,0,0,1.35-.37A9.38,9.38,0,0,0,90.37,23a17.33,17.33,0,0,0,1.52-1.27l1.35-1.35c.41-.42.77-.81,1.07-1.15l.64-.71.31.26c-.2.18-.46.45-.8.82L93.34,20.8c-2.52,2.67-4.7,4-6.52,4a2.19,2.19,0,0,1-1.42-.43,1.42,1.42,0,0,1-.53-1.17q0-2.31,6.74-6.83a21.09,21.09,0,0,1-4.55-1.1,17.2,17.2,0,0,1-3.16,4.3,3.38,3.38,0,0,1-.61.56.52.52,0,0,0-.15.07s0,0,0-.09V20a.75.75,0,0,1,.07-.12c.48-.55.93-1.07,1.35-1.58a18.35,18.35,0,0,0,2.13-3.2,1.24,1.24,0,0,1-.64-.76,1.72,1.72,0,0,1,0-.75,1.63,1.63,0,0,1,.27-.63,1.13,1.13,0,0,1,.93-.61c.65,0,1,.24,1,.71a1.25,1.25,0,0,1-.14.61l-.28.48a1.27,1.27,0,0,0-.28.82c0,.19.4.37,1.19.53s1.35.28,1.68.34a12.87,12.87,0,0,0,1.73.24c.29,0,.43.09.43.23s-.17.28-.5.54-.71.6-1.11,1-.8.79-1.18,1.21-.75.84-1.09,1.28a14.94,14.94,0,0,0-.9,1.26A4.25,4.25,0,0,0,86.9,23.55Z"/><path d="M101,24.8c-1,0-1.55-.32-1.55-1a3.63,3.63,0,0,1,.9-2l1-1.24-.16-.06a12.12,12.12,0,0,1-4.92,4,3.34,3.34,0,0,1-1.1.22c-1.28,0-1.91-.68-1.91-2a6.82,6.82,0,0,1,1.91-4.57,10.86,10.86,0,0,1,5.68-3.9,8,8,0,0,1,1.46-.17,4,4,0,0,1,1,.09,2.59,2.59,0,0,1,.61.24,1,1,0,0,1,.56.88,2.52,2.52,0,0,1-.19,1l1.53-1.88a2.44,2.44,0,0,0,.77.13,10.13,10.13,0,0,0,1.32-.06l-5.23,6.3c-1.24,1.45-1.87,2.47-1.87,3.06,0,.33.2.5.6.5a3.25,3.25,0,0,0,1.35-.36,8.17,8.17,0,0,0,1.53-.92,15.29,15.29,0,0,0,1.49-1.24c.48-.45.92-.9,1.33-1.33s.77-.84,1.08-1.22l.75-.83.32.26-.79.9Q104,24.81,101,24.8Zm-4.3-5.59q-2.19,2.66-2.19,4.35c0,.52.23.78.7.78,1.51,0,3.69-1.68,6.54-5l1.3-1.57A4.57,4.57,0,0,0,104,15.7a1,1,0,0,0-1.08-1.09q-1.49,0-4.24,2.52A21.14,21.14,0,0,0,96.73,19.21Z"/><path d="M107.29,23.85c0,.35.25.52.75.52a3.73,3.73,0,0,0,1.59-.4,10.61,10.61,0,0,0,1.68-1,16.58,16.58,0,0,0,1.6-1.33c.52-.48,1-.94,1.42-1.37l1.07-1.15c.29-.33.48-.55.59-.65l.31.26-.63.68c-.3.34-.68.74-1.12,1.18s-.93.92-1.47,1.42a18.08,18.08,0,0,1-1.7,1.36,6.64,6.64,0,0,1-3.62,1.43,1.65,1.65,0,0,1-1.08-.35,1,1,0,0,1-.43-.77,3.85,3.85,0,0,1,0-.66,3.12,3.12,0,0,1,.16-.57q.14-.32.36-.75c.16-.28.36-.62.62-1l2.38-3.51L121.81,0A7.81,7.81,0,0,0,124,0q-14.82,20.6-15.34,21.38c-.35.52-.61.91-.78,1.18s-.29.48-.37.64A1.46,1.46,0,0,0,107.29,23.85Z"/><path d="M0,42.65l2.05.42c.33.07.71.1,1.12.17s.86.12,1.34.17l1.57.1.43,0H7.86a19.59,19.59,0,0,0,2-.1c.69,0,1.4-.15,2.15-.24l.56-.08.57-.11,1.17-.23,1.21-.3c.4-.11.82-.2,1.23-.34L18,41.76c.43-.13.85-.3,1.29-.45.88-.29,1.75-.67,2.66-1,1.8-.77,3.68-1.62,5.61-2.59s3.92-2,6-3.11,4.25-2.2,6.54-3.26c1.15-.52,2.32-1,3.53-1.52.6-.25,1.22-.46,1.84-.69s1.25-.43,1.89-.64a39,39,0,0,1,8-1.62,32.18,32.18,0,0,1,8.47.41A21.22,21.22,0,0,1,66,27.8a16.77,16.77,0,0,1,5.82,3.07,14.12,14.12,0,0,1,2.92,3.34,15.68,15.68,0,0,1,1.8,4,18.86,18.86,0,0,1,.4,8.74,13.48,13.48,0,0,1-.59,2.13,7.1,7.1,0,0,1-1.06,2,2.6,2.6,0,0,1-.92.74,1.44,1.44,0,0,1-.62.14,1.77,1.77,0,0,1-.32-.05l-.13,0-.15-.05a2,2,0,0,1-1-.72A2.87,2.87,0,0,1,71.72,50a6.18,6.18,0,0,1,0-2.27,13.3,13.3,0,0,1,.55-2.15,20.25,20.25,0,0,1,.8-2l.12-.25.12-.25.23-.49c.16-.32.33-.66.5-1a25.41,25.41,0,0,1,2.38-3.71A19.42,19.42,0,0,1,77.9,36.2a14.88,14.88,0,0,1,1.66-1.5,14.38,14.38,0,0,1,3.92-2.25,12,12,0,0,1,4.47-.8,9.4,9.4,0,0,1,4.37,1.15A6.94,6.94,0,0,1,95.39,36a6,6,0,0,1,.32,1.07,5.13,5.13,0,0,1,.07,1.1,5.22,5.22,0,0,1-.19,1.06,6.26,6.26,0,0,1-.4,1,5.82,5.82,0,0,1-.57.86,2.72,2.72,0,0,1-.38.39l-.25.16a1.6,1.6,0,0,1-.31.1,1,1,0,0,1-.34,0l-.17,0L93,41.62a.86.86,0,0,1-.26-.2,1.12,1.12,0,0,1-.19-.24,2.34,2.34,0,0,1-.3-1,4.74,4.74,0,0,1,.29-2,7.87,7.87,0,0,1,.85-1.72A12.25,12.25,0,0,1,95.9,33.7,21.92,21.92,0,0,1,102,30.16l1.55-.58,1.59-.47c.53-.14,1.05-.25,1.57-.37s1-.17,1.56-.24,1-.1,1.54-.13l.76,0c.25,0,.5,0,.75,0,.5,0,1,0,1.47.09l.72.09.7.12a15.88,15.88,0,0,1,5,1.75,13.75,13.75,0,0,1,3.5,2.78,9.22,9.22,0,0,1,2.56,5.56,3.44,3.44,0,0,1-.27,1.6,1.86,1.86,0,0,1-.21.35l-.08.11,0-.13a2.19,2.19,0,0,0,.1-.38,3.46,3.46,0,0,0-.1-1.48,7.48,7.48,0,0,0-1-2.15,12.06,12.06,0,0,0-2.14-2.37c-.22-.2-.48-.38-.72-.58s-.51-.37-.79-.54-.56-.35-.87-.5l-.46-.24-.48-.22c-.32-.16-.67-.28-1-.42-.17-.07-.36-.11-.54-.17l-.54-.18A18.63,18.63,0,0,0,113.8,31l-.62-.09-.64,0c-.42-.05-.86,0-1.3-.05s-.89,0-1.35,0-.91.08-1.38.12l-1.42.18c-.48.09-1,.16-1.46.26s-1,.2-1.46.32l-1.54.39c-1,.3-2,.61-3.06,1a18,18,0,0,0-2.95,1.53,10.35,10.35,0,0,0-2.53,2.28,6.28,6.28,0,0,0-.88,1.5,4.09,4.09,0,0,0-.31,1.67,1.78,1.78,0,0,0,.2.76.45.45,0,0,0,.46.26l.14-.06.15-.1a2,2,0,0,0,.27-.29,4.12,4.12,0,0,0,.43-.77,3.5,3.5,0,0,0,.31-1.7,3.21,3.21,0,0,0-.59-1.58,5.3,5.3,0,0,0-2.81-1.89A10.3,10.3,0,0,0,88,34.3a12.83,12.83,0,0,0-3.58.66,16.36,16.36,0,0,0-1.74.72q-.86.43-1.68,1a22.12,22.12,0,0,0-5.78,5.65c-.2.28-.4.56-.6.86l-.29.45-.14.22-.13.23a18.22,18.22,0,0,0-1,1.85,12,12,0,0,0-.69,2,5.41,5.41,0,0,0-.12,2,1.77,1.77,0,0,0,1.09,1.47l.1,0,.13,0,.22,0a1.07,1.07,0,0,0,.43-.09A2.24,2.24,0,0,0,75,50.8a6.65,6.65,0,0,0,1-1.84,13.43,13.43,0,0,0,.55-2.07,17,17,0,0,0,.22-4.27,17.27,17.27,0,0,0-.8-4.18,13.72,13.72,0,0,0-4.74-6.75,16.15,16.15,0,0,0-7.52-3l-.52-.07-.26,0h-.24l-1-.07c-.34,0-.67-.06-1-.07h-2l-1,.06-1,.06-1,.13A38.28,38.28,0,0,0,48,30.48c-.6.2-1.21.4-1.8.63s-1.19.44-1.77.69c-1.17.47-2.31,1-3.43,1.48-4.49,2-8.64,4.3-12.63,6.12-2,.92-3.92,1.76-5.81,2.46-1,.32-1.87.66-2.8.92-.45.14-.9.29-1.35.4l-1.33.33a31.06,31.06,0,0,1-9.25.81l-.93-.07-.45,0L6,44.15,4.44,43.9c-.49-.1-.94-.22-1.35-.31s-.78-.18-1.11-.28Z"/></g></g></svg>